<svg xmlns="http://www.w3.org/2000/svg" version="1.1" viewBox="61.44 333.824 909.312 374.784" style="max-height: 500px" width="909.312" height="374.784">
<path transform="translate(0,0)" fill="#FAFAFA" d="M0 0 C337.92 0 675.84 0 1024 0 C1024 337.92 1024 675.84 1024 1024 C686.08 1024 348.16 1024 0 1024 C0 686.08 0 348.16 0 0 Z"/>
<path transform="translate(325,350)" fill="#2A8D4A" d="M0 0 C-0.4424669 13.27400697 -7.93025524 23.95639108 -17.11328125 33.10546875 C-20.49765309 36.19665584 -23.49863612 38.73399141 -28 40 C-28 40.66 -28 41.32 -28 42 C-27.21625 42.20625 -26.4325 42.4125 -25.625 42.625 C-14.02254635 47.02593069 -2.42783375 55.55555052 3 67 C2.68359375 69.8046875 2.68359375 69.8046875 2 72 C-8.09948904 72.60314611 -16.90256612 67.19434819 -24.3125 60.6875 C-28.52403498 56.67684415 -32.26271526 52.31150401 -35.89453125 47.7734375 C-37.85699469 45.71619648 -37.85699469 45.71619648 -40.47265625 46.09765625 C-43.73130164 47.26109842 -46.79702266 48.6654665 -49.9140625 50.16015625 C-52 51 -52 51 -55 51 C-55 51.66 -55 52.32 -55 53 C-54.3090625 53.08636719 -53.618125 53.17273438 -52.90625 53.26171875 C-49.27723918 54.18360456 -46.66553553 55.81924807 -43.5 57.8125 C-42.3965625 58.49957031 -41.293125 59.18664062 -40.15625 59.89453125 C-30.62761767 66.25088376 -24.09041929 75.25558066 -20 86 C-20 87.32 -20 88.64 -20 90 C-28.43284203 90.9582775 -36.42450143 87.09230697 -43.1875 82.25 C-51.84911558 75.18441711 -58.12532023 67.46031538 -64 58 C-68.28087732 58.54609432 -71.56187072 59.55287781 -75.375 61.5625 C-76.24898437 62.01753906 -77.12296875 62.47257812 -78.0234375 62.94140625 C-78.67570313 63.29074219 -79.32796875 63.64007813 -80 64 C-78.40671875 64.76183594 -78.40671875 64.76183594 -76.78125 65.5390625 C-60.59146847 73.37838559 -49.8647008 81.62451189 -43 99 C-43 100.32 -43 101.64 -43 103 C-57.13781784 102.28112791 -69.63521242 96.06326064 -79.1875 85.6875 C-83.12950076 81.03096142 -86.61309323 76.06977608 -90 71 C-93.76119476 71.62393651 -96.18960042 73.34773715 -99.25 75.5625 C-100.14203125 76.20316406 -101.0340625 76.84382813 -101.953125 77.50390625 C-102.62859375 77.99761719 -103.3040625 78.49132812 -104 79 C-100.86997761 81.08668159 -97.9433508 82.21172763 -94.4375 83.5625 C-80.01240625 89.55946999 -71.18003117 101.99322089 -65 116 C-65 117.32 -65 118.64 -65 120 C-78.32171615 120.5287749 -89.32208778 114.74761076 -99 106 C-104.58296656 100.51050776 -109.10542885 94.78409168 -113 88 C-117.04940907 90.89830802 -120.9152579 93.77823841 -124.375 97.375 C-125.24125 98.24125 -126.1075 99.1075 -127 100 C-127.66 100 -128.32 100 -129 100 C-129 100.66 -129 101.32 -129 102 C-128.29617187 102.13535156 -127.59234375 102.27070313 -126.8671875 102.41015625 C-113.81702168 105.25529684 -101.30520322 110.48339142 -93.71728516 121.93603516 C-84.40469646 136.57291672 -84.40469646 136.57291672 -84 142 C-85 143 -85 143 -88.1875 143.3125 C-102.32325993 143.08450387 -115.47377051 136.04802765 -125.5625 126.58984375 C-129.82759266 122.0581828 -133.43195402 117.09351491 -137 112 C-145.20710406 115.38705882 -150.73764886 124.57525931 -155 132 C-154.28457031 131.95359375 -153.56914062 131.9071875 -152.83203125 131.859375 C-139.49313357 131.37620665 -127.58541807 135.42440539 -117.4765625 144.1875 C-111.33373762 150.08461188 -105.43338983 156.69668632 -101 164 C-101 165.32 -101 166.64 -101 168 C-118.79529277 169.00098522 -136.47168634 164.85214433 -150.09472656 152.72875977 C-152.45410033 150.53827434 -154.73607022 148.28944911 -157 146 C-157.60457031 145.43796875 -158.20914063 144.8759375 -158.83203125 144.296875 C-160 143 -160 143 -160 141 C-160.66 141 -161.32 141 -162 141 C-162.23460937 141.64324219 -162.46921875 142.28648437 -162.7109375 142.94921875 C-164.43907684 147.03914852 -166.52724917 150.90216134 -168.625 154.8125 C-169.04523438 155.60076172 -169.46546875 156.38902344 -169.8984375 157.20117188 C-170.9300009 159.13535326 -171.96391172 161.06823983 -173 163 C-172.39639648 162.97905273 -171.79279297 162.95810547 -171.17089844 162.93652344 C-152.86401889 162.38515345 -139.22274714 164.05189908 -125.0078125 176.65234375 C-120.11279306 181.29691287 -115.87000556 185.84998808 -113 192 C-119.58182758 196.66418985 -127.50507441 195.77918636 -135.1796875 194.69091797 C-149.4922491 192.1983166 -159.94220665 186.3927901 -171 177 C-172.09681506 176.08362765 -173.19449117 175.16828504 -174.29296875 174.25390625 C-175.18628906 173.51011719 -176.07960938 172.76632812 -177 172 C-178.27339482 174.51956743 -179.54376642 177.04058649 -180.8125 179.5625 C-181.16892578 180.26697266 -181.52535156 180.97144531 -181.89257812 181.69726562 C-184.09092409 186.07378925 -186.11663926 190.47874598 -188 195 C-187.34 194.67 -186.68 194.34 -186 194 C-167.77414537 192.68878744 -151.54753813 193.75747957 -136.44921875 204.87890625 C-133.90210729 207.0847779 -131.85159689 209.36899321 -129.75 212 C-129.06421875 212.845625 -128.3784375 213.69125 -127.671875 214.5625 C-126.12338994 216.82010438 -125.42039379 218.32926298 -125 221 C-131.03604897 223.66609937 -137.15350013 223.36765437 -143.625 223.375 C-144.73746094 223.39949219 -145.84992188 223.42398438 -146.99609375 223.44921875 C-163.34697484 223.50632311 -175.60172611 216.57846354 -187.22265625 205.50390625 C-188.86642269 203.78468592 -188.86642269 203.78468592 -191 204 C-192.00597015 207.76926669 -193.00374802 211.54065412 -194 215.3125 C-194.28617188 216.38435547 -194.57234375 217.45621094 -194.8671875 218.56054688 C-195.13789063 219.58857422 -195.40859375 220.61660156 -195.6875 221.67578125 C-195.93886719 222.62364502 -196.19023437 223.57150879 -196.44921875 224.5480957 C-197.10958618 227.06900889 -197.10958618 227.06900889 -197 230 C-195.80375 229.525625 -194.6075 229.05125 -193.375 228.5625 C-183.50388549 224.64809252 -170.43666817 224.33827318 -160.40234375 227.89453125 C-153.1740669 231.22071393 -146.96861089 235.54322246 -141.56640625 241.375 C-140.01655123 242.98282964 -138.4033078 244.27970804 -136.625 245.625 C-133.81637741 248.16613472 -133.21215389 249.28730694 -133 253 C-140.23645952 258.3689861 -150.73306465 257.2342216 -159.375 257.3125 C-160.43460937 257.34150391 -161.49421875 257.37050781 -162.5859375 257.40039062 C-176.85306148 257.51403806 -187.61610982 251.34550116 -198 242 C-198.33 241.34 -198.66 240.68 -199 240 C-202.00090878 251.05990106 -203.98719577 262.28281572 -206.02319336 273.54931641 C-206.46990999 276.01302632 -206.92399933 278.47529129 -207.37890625 280.9375 C-207.57898033 282.06406006 -207.57898033 282.06406006 -207.78309631 283.21337891 C-209.04878807 290.02920655 -209.04878807 290.02920655 -211 293 C-213.84083641 294.42041821 -215.85477278 294.31452272 -219 294 C-221.5896784 291.97976437 -222.83622543 290.75221269 -223.54223633 287.50952148 C-223.4725774 278.83960603 -221.37161335 271.25376286 -218.6875 263.0625 C-213.26566991 247.83304417 -213.26566991 247.83304417 -211 232 C-212.0621875 231.55269531 -213.124375 231.10539063 -214.21875 230.64453125 C-233.53836753 222.42181324 -245.53409023 212.34832503 -253.90234375 192.68359375 C-254.46602834 191.27229931 -255.01977467 189.85698636 -255.5625 188.4375 C-255.81402832 187.78330078 -256.06555664 187.12910156 -256.32470703 186.45507812 C-257.73233908 182.52463753 -258.34466667 179.16733342 -258 175 C-257.67 174.67 -257.34 174.34 -257 174 C-245.13407439 174.38904674 -235.11980096 179.65778736 -226 187 C-225.30132812 187.56074219 -224.60265625 188.12148438 -223.8828125 188.69921875 C-215.40019422 196.30717016 -209.57659696 207.76674663 -208 219 C-207.34 219 -206.68 219 -206 219 C-205.89042969 218.45472656 -205.78085938 217.90945313 -205.66796875 217.34765625 C-204.63914885 212.45448845 -203.33830299 207.82516641 -201.5859375 203.140625 C-200.87244351 200.53399361 -200.57257603 198.68543142 -201 196 C-203.04816849 194.23933584 -203.04816849 194.23933584 -205.8125 192.875 C-221.67517473 183.35331735 -229.39133923 169.44759541 -234.2578125 152.02734375 C-236.16895553 144.23189191 -237.263458 137.03546903 -237 129 C-226.8701734 130.18637609 -216.75729155 136.42228673 -210 144 C-200.61014135 155.88988391 -197.54545982 170.41016931 -195 185 C-193.45984969 181.92595107 -191.94637913 178.83950288 -190.4375 175.75 C-189.99986328 174.87730469 -189.56222656 174.00460937 -189.11132812 173.10546875 C-188.70205078 172.26113281 -188.29277344 171.41679688 -187.87109375 170.546875 C-187.48880615 169.77182617 -187.10651855 168.99677734 -186.71264648 168.19824219 C-185.88167731 165.63501969 -186.00618915 164.47944495 -187 162 C-189.00459388 159.82105506 -189.00459388 159.82105506 -191.5 157.625 C-200.91803353 148.44949094 -207.09864952 137.56579551 -211 125 C-211.36867187 123.81921875 -211.73734375 122.6384375 -212.1171875 121.421875 C-213.49823157 115.72803728 -213.25137772 109.94795811 -213.1875 104.125 C-213.18685547 102.98546875 -213.18621094 101.8459375 -213.18554688 100.671875 C-213.14070472 92.28140944 -213.14070472 92.28140944 -212 90 C-202.24743042 91.42434435 -196.16054558 100.92425412 -190.55859375 108.359375 C-182.85257717 119.01056391 -179.78182074 129.45683362 -179.375 142.4375 C-179.25125 145.923125 -179.1275 149.40875 -179 153 C-175.04 146.4 -171.08 139.8 -167 133 C-169.44771708 129.32842438 -171.67548036 126.09249028 -174.4375 122.75 C-183.43620215 111.22703665 -186.53311912 98.88364022 -186.3125 84.4375 C-186.31572266 83.37853516 -186.31894531 82.31957031 -186.32226562 81.22851562 C-186.27733257 74.59884793 -185.56979525 68.44182149 -184 62 C-182.1003418 61.44116211 -182.1003418 61.44116211 -180 61 C-171.48196507 65.99476014 -164.64829955 79.10162042 -161.4375 88.1875 C-158.58483884 99.4045251 -159.67717126 111.52468005 -160 123 C-157.6762991 120.25929335 -155.36808931 117.50595224 -153.0625 114.75 C-152.40314453 113.97269531 -151.74378906 113.19539063 -151.06445312 112.39453125 C-150.12182617 111.26337891 -150.12182617 111.26337891 -149.16015625 110.109375 C-148.57886963 109.41811523 -147.99758301 108.72685547 -147.39868164 108.01464844 C-145.95948752 105.94164619 -145.31771143 104.49336532 -145 102 C-146.02064196 99.97083608 -146.02064196 99.97083608 -147.625 98 C-157.37258604 84.27612595 -158.31976579 69.30814322 -157 53 C-155.62464652 44.8851026 -152.77133862 37.69822537 -148 31 C-142.53437086 32.82187638 -140.52325733 39.08502957 -138 44 C-131.1888268 60.21941243 -132.46050906 80.3551999 -137 97 C-131.39 91.39 -125.78 85.78 -120 80 C-121.97065566 72.66154245 -121.97065566 72.66154245 -124.16796875 65.390625 C-125.21647241 61.11784952 -125.34279119 57.13344267 -125.3125 52.75 C-125.30512817 51.48820923 -125.30512817 51.48820923 -125.29760742 50.20092773 C-125.1761334 43.73788665 -124.33687008 38.06096583 -122 32 C-121.62488281 31.00613281 -121.24976563 30.01226562 -120.86328125 28.98828125 C-118.36801918 22.71470438 -115.4443616 16.80411572 -112 11 C-110.35 11.33 -108.7 11.66 -107 12 C-106.18372554 14.39460588 -105.37188355 16.79056526 -104.5625 19.1875 C-104.21735352 20.19780273 -104.21735352 20.19780273 -103.86523438 21.22851562 C-98.17391075 38.13752059 -101.63539385 54.10642309 -109 70 C-108.26394531 69.52949219 -107.52789062 69.05898438 -106.76953125 68.57421875 C-105.79371094 67.95160156 -104.81789062 67.32898438 -103.8125 66.6875 C-102.84957031 66.07261719 -101.88664063 65.45773437 -100.89453125 64.82421875 C-99.93933594 64.22222656 -98.98414063 63.62023437 -98 63 C-96.64455078 62.14341797 -96.64455078 62.14341797 -95.26171875 61.26953125 C-93 60 -93 60 -91 60 C-91.15726563 58.90042969 -91.31453125 57.80085938 -91.4765625 56.66796875 C-93.47226308 40.51415744 -93.55960624 25.49351996 -83.5 12 C-82.35336154 10.64940416 -81.18836492 9.31403109 -80 8 C-79.29810547 7.17822266 -79.29810547 7.17822266 -78.58203125 6.33984375 C-77.3125 4.9375 -77.3125 4.9375 -75 3 C-73.68 3 -72.36 3 -71 3 C-66.95068451 21.34113708 -70.4565053 38.12598714 -80 54 C-72.00232819 51.48013088 -72.00232819 51.48013088 -65 47 C-62.8425702 42.10982579 -62.5329175 37.27921401 -62 32 C-58.70706595 19.668648 -50.40619896 10.06134929 -40 3 C-38.6822543 2.30302906 -37.35377844 1.62410428 -36 1 C-34.3646277 15.92601699 -40.82595728 28.81378979 -49 41 C-40.46175023 39.38873751 -40.46175023 39.38873751 -33.64697266 34.38623047 C-32.01870223 31.7739989 -30.68034227 29.06099611 -29.32763672 26.29882812 C-24.88295979 17.34839304 -11.01960977 0 0 0 Z"/>
<path transform="translate(426,440)" fill="#151F16" d="M0 0 C2.4375 1.4375 2.4375 1.4375 4 4 C4.84668815 11.84980368 1.56000836 17.87873617 -3 24 C-5.86639143 27.46984226 -8.87898627 30.75852609 -12 34 C-12.61101562 34.639375 -13.22203125 35.27875 -13.8515625 35.9375 C-17.51787744 39.68752076 -21.39054662 43.1383569 -25.3984375 46.51953125 C-28.78062439 49.64599182 -28.35970209 53.5514307 -28.6484375 57.875 C-28.76800171 59.51824573 -28.88780187 61.16147431 -29.0078125 62.8046875 C-29.1907921 65.37511517 -29.37128863 67.94565797 -29.546875 70.51660156 C-31.69122129 101.59743892 -31.69122129 101.59743892 -36.6875 114.8125 C-37.06878052 115.85011475 -37.06878052 115.85011475 -37.45776367 116.90869141 C-46.43930708 140.23758506 -65.2236004 157.38956842 -87.25 168.25 C-106.49430776 176.71655207 -126.56680646 179.61829217 -147 174 C-148.90823886 186.25016505 -148.90823886 186.25016505 -146 198 C-145.34 198.66 -144.68 199.32 -144 200 C-144.375 202.125 -144.375 202.125 -145 204 C-146.65 204.33 -148.3 204.66 -150 205 C-155.15274062 199.30486563 -157.28912228 194.68585868 -157.25 186.8125 C-157.24419922 185.11480469 -157.24419922 185.11480469 -157.23828125 183.3828125 C-157.00713383 180.10127698 -156.32919811 177.34138791 -155.4375 174.1875 C-154.76759372 171.53541492 -154.76759372 171.53541492 -155 169 C-156.90668778 166.56622305 -159.01591877 164.94052238 -161.4765625 163.07421875 C-170.53627378 155.62730437 -174.20177756 143.20948006 -176 132 C-177.82133079 104.14259631 -166.15284279 80.45460394 -148.24047852 59.70898438 C-146.84082837 58.12611351 -145.42589755 56.55925488 -144 55 C-143.29254639 54.22462891 -143.29254639 54.22462891 -142.57080078 53.43359375 C-131.81838622 41.81093635 -119.85458467 32.78015131 -105 27 C-104.33097656 26.73445313 -103.66195312 26.46890625 -102.97265625 26.1953125 C-93.60801006 23.2035437 -81.32744198 23.85073915 -72.40234375 27.67578125 C-64.67831164 31.93341846 -60.06645674 37.48587147 -57.41015625 45.859375 C-56.88096725 48.6212376 -56.86803382 51.25164523 -56.875 54.0625 C-56.87113281 55.62677734 -56.87113281 55.62677734 -56.8671875 57.22265625 C-57 60 -57 60 -58 63 C-57.24074219 62.37351562 -56.48148437 61.74703125 -55.69921875 61.1015625 C-54.70535156 60.28429687 -53.71148437 59.46703125 -52.6875 58.625 C-51.20830078 57.40683594 -51.20830078 57.40683594 -49.69921875 56.1640625 C-47 54 -47 54 -44 52 C-42.99677988 49.62660019 -42.13233692 47.31041479 -41.3125 44.875 C-35.23403604 27.88389635 -26.46895554 8.32678002 -9.3125 -0.0625 C-5.61210414 -1.10978185 -3.64145265 -1.21381755 0 0 Z"/>
<path transform="translate(946,534)" fill="#151F15" d="M0 0 C1.9375 1.6875 1.9375 1.6875 3 4 C2.39493277 9.92581716 -1.03390197 12.86243532 -5 17 C-5.68578125 17.72574219 -6.3715625 18.45148437 -7.078125 19.19921875 C-11.78868379 24.05380542 -16.7729066 28.39194336 -22.05078125 32.6171875 C-24.67223338 34.73518193 -27.23968813 36.89866934 -29.79663086 39.09301758 C-48.34787654 55 -48.34787654 55 -52 55 C-52 55.66 -52 56.32 -52 57 C-51.01 57.020625 -50.02 57.04125 -49 57.0625 C-43.87644796 57.75402236 -40.33849547 61.24527652 -37 65 C-37 65.66 -37 66.32 -37 67 C-25.31752693 58.31351599 -14.76056707 48.81743243 -4.4375 38.5625 C-3.84138916 37.97114258 -3.24527832 37.37978516 -2.63110352 36.77050781 C0.14564938 33.98297218 2.75601976 31.25017779 5 28 C6.65 28.33 8.3 28.66 10 29 C10.6796875 30.7421875 10.6796875 30.7421875 11 33 C9.8828125 35.0078125 9.8828125 35.0078125 8.125 37.125 C7.47144531 37.91390625 6.81789063 38.7028125 6.14453125 39.515625 C5.08298828 40.74539063 5.08298828 40.74539063 4 42 C3.32324219 42.79921875 2.64648438 43.5984375 1.94921875 44.421875 C-4.97294607 52.36907703 -12.42500919 60.05021118 -21.25390625 65.87109375 C-29.28938078 70.85844668 -29.28938078 70.85844668 -34.3203125 78.484375 C-34.79957333 82.05081755 -34.79957333 82.05081755 -34.875 85.6171875 C-35.57920535 104.6747448 -52.27489951 121.12006868 -65.24804688 133.39599609 C-81.44251689 148.22287291 -103.80056494 160.70991769 -126.1640625 160.25 C-131.45276407 159.78377837 -135.29298401 158.36561279 -139.5 155 C-142.07752802 149.84494396 -141.93197083 144.38225175 -140.41015625 138.859375 C-129.2377066 113.52829101 -92.86979935 98.07848864 -69.63452148 86.82836914 C-58.9365321 82.43880668 -58.9365321 82.43880668 -51 75 C-50.85624578 71.62177584 -50.92463652 69.22609045 -52 66 C-59.65059824 65.37546137 -64.03221074 67.15877948 -70.1875 71.56640625 C-74.84826075 74.83366252 -78.19604329 77.11607913 -84 77 C-85.9375 75.875 -85.9375 75.875 -87 74 C-87.44236794 69.64653776 -87.44236794 69.64653776 -85.8828125 67.3671875 C-80.32071923 62.64558833 -74.22077078 58.99237404 -67.98095703 55.25268555 C-54.28017509 47.0140604 -39.31250056 37.31250056 -28 26 C-40.09170787 20.60100338 -40.09170787 20.60100338 -53 20 C-58.4542205 22.49985106 -61.98776101 27.13665828 -65.875 31.58203125 C-68.15361531 34.17479389 -70.52118141 36.6011433 -73 39 C-74.485 38.01 -74.485 38.01 -76 37 C-75.16161415 26.38044596 -68.15608502 17.40518925 -61 10 C-55.02717761 4.98067034 -49.46958064 1.49662007 -41.625 0.625 C-34.047191 1.40891128 -29.66498804 5.08895779 -24.609375 10.515625 C-22.53981244 12.42444484 -20.79562716 12.91528403 -18 13 C-17.46375 12.319375 -16.9275 11.63875 -16.375 10.9375 C-14.55909852 8.69151659 -12.73411634 6.45997899 -10.875 4.25 C-10.37742187 3.65703125 -9.87984375 3.0640625 -9.3671875 2.453125 C-6.58177721 -0.50736822 -3.90361486 -0.39832805 0 0 Z"/>
<path transform="translate(353,475)" fill="#F9F9F9" d="M0 0 C5.06871624 4.56184462 7.80357676 9.07098285 8.265625 15.9609375 C8.27089867 17.43229143 8.26543303 18.90371756 8.25 20.375 C8.26160156 21.46941406 8.26160156 21.46941406 8.2734375 22.5859375 C8.25137714 28.76283732 7.79672613 33.95236669 3.56640625 38.7734375 C2.57511719 39.63195312 1.58382812 40.49046875 0.5625 41.375 C0.02536377 41.84703857 -0.51177246 42.31907715 -1.06518555 42.80541992 C-4.41324778 45.72445787 -7.85479128 48.52452765 -11.3125 51.3125 C-24.45653226 61.94038894 -36.26091473 74.13389987 -48.14160156 86.12548828 C-50.42057519 88.4242218 -52.7088661 90.71339404 -55 93 C-55.66 92.34 -56.32 91.68 -57 91 C-56.8121678 87.61902045 -55.97688865 85.96749966 -54 83.1875 C-51.51543446 79.22772366 -51.31819772 76.61386688 -51 72 C-54.48170548 72.29014212 -55.74228955 72.72756324 -58.1875 75.3125 C-61.16787175 79.73167191 -62.27751973 82.46737385 -62.25 87.875 C-62.25515625 88.88304687 -62.2603125 89.89109375 -62.265625 90.9296875 C-62.16109858 94.06232266 -62.16109858 94.06232266 -60.70703125 96.93359375 C-60 100 -60 100 -61.74609375 103.48046875 C-62.62315531 104.73047388 -63.52157474 105.96568548 -64.4375 107.1875 C-65.37214162 108.50446529 -66.30572707 109.82218075 -67.23828125 111.140625 C-67.70572754 111.78837891 -68.17317383 112.43613281 -68.65478516 113.10351562 C-70.58229427 115.82091867 -72.35266247 118.61637717 -74.125 121.4375 C-74.96417969 122.76587891 -74.96417969 122.76587891 -75.8203125 124.12109375 C-76.40425781 125.05115234 -76.40425781 125.05115234 -77 126 C-80.83672222 124.5438453 -81.96544196 122.78641047 -83.6875 119.125 C-84.10386719 118.26132812 -84.52023437 117.39765625 -84.94921875 116.5078125 C-92.13849706 99.34975796 -85.66542042 78.04952969 -79.24462891 61.67700195 C-68.76920983 36.11584805 -51.37695914 11.82188456 -26.01953125 -0.44140625 C-17.56551248 -3.86355489 -8.1031505 -4.95578947 0 0 Z"/>
<path transform="translate(814,537)" fill="#151F16" d="M0 0 C0.99 0.66 1.98 1.32 3 2 C3.32613281 1.50886719 3.65226563 1.01773438 3.98828125 0.51171875 C7.11231945 -1.83585947 10.44666118 -1.31491722 14.1875 -1.1875 C14.93708984 -1.17396484 15.68667969 -1.16042969 16.45898438 -1.14648438 C18.30629767 -1.11118539 20.15324066 -1.05737917 22 -1 C23 2 23 2 21.5859375 5.01953125 C20.85966646 6.29003552 20.12166444 7.55387259 19.375 8.8125 C18.97547119 9.504646 18.57594238 10.19679199 18.16430664 10.90991211 C15.19019701 16.04006874 12.14607038 21.12955722 9.11889648 26.22851562 C-2.46226821 44.1027954 -2.46226821 44.1027954 -9 64 C7.79962291 61.83230672 21.13741548 43.73131929 31 31 C32.00430857 29.669909 33.00595563 28.33777934 34 27 C35.98 27.495 35.98 27.495 38 28 C38.875 30 38.875 30 39 33 C35.36536769 39.96369819 28.82186573 45.78601212 23.44677734 51.46972656 C22.05753288 52.9391468 20.67891367 54.41859053 19.30078125 55.8984375 C10.72720236 64.83498542 0.03673269 75.15481575 -13 75.4375 C-17.35115782 75.37862825 -18.59871984 75.29899306 -22.1875 72.625 C-24.71432239 68.96546413 -25.20361586 66.78414799 -25.5625 62.375 C-25.64628906 61.37210938 -25.73007812 60.36921875 -25.81640625 59.3359375 C-25.87699219 58.56507813 -25.93757812 57.79421875 -26 57 C-26.34289062 57.47308594 -26.68578125 57.94617188 -27.0390625 58.43359375 C-32.73375694 65.62910667 -41.21947927 72.07315976 -50 75 C-54.83716712 75.38936949 -59.39781015 75.64769377 -63.9375 73.8125 C-68.0737714 70.17759483 -70.73993736 66.92463884 -71.23828125 61.3203125 C-71.64024077 44.01489748 -64.51679439 30.56844115 -52.875 18.25 C-39.42135912 5.49256152 -18.77636451 -9.07593673 0 0 Z"/>
<path transform="translate(495.75,449.875)" fill="#151F16" d="M0 0 C1.47726562 0.02707031 1.47726562 0.02707031 2.984375 0.0546875 C4.10585938 0.08949219 4.10585938 0.08949219 5.25 0.125 C6.00390625 1.73828125 6.00390625 1.73828125 6.25 4.125 C4.98452897 6.33725375 3.6910378 8.27072094 2.1875 10.3125 C-4.65318847 20.07541236 -10.2345824 30.51431674 -15.98291016 40.94238281 C-18.17198024 44.88500752 -20.41184857 48.79715718 -22.65405273 52.7097168 C-28.14259308 62.30563659 -33.39529934 72.0085416 -38.5 81.8125 C-39.10908203 82.97765137 -39.71816406 84.14280273 -40.34570312 85.34326172 C-40.90708984 86.43010254 -41.46847656 87.51694336 -42.046875 88.63671875 C-42.54541992 89.60053467 -43.04396484 90.56435059 -43.55761719 91.55737305 C-44.58647107 93.77286368 -45.27347262 95.73990317 -45.75 98.125 C-44.450625 96.8565625 -44.450625 96.8565625 -43.125 95.5625 C-36.37265939 89.79830679 -26.68733855 84.28421126 -17.65234375 83.9140625 C-14.51856755 84.26154487 -12.32672745 85.36528369 -9.75 87.125 C-6.64940293 91.77589561 -6.84627839 95.67774007 -7.75 101.125 C-10.91081394 110.54798331 -16.2441231 119.23153421 -21.44506836 127.64453125 C-25.8028516 134.71869451 -30.11813222 142.22939666 -32.75 150.125 C-16.6802402 147.25540004 -5.37458547 131.23641131 4.25 119.125 C6.2293133 116.7727726 8.23656986 114.44818863 10.25 112.125 C12.23 112.62 12.23 112.62 14.25 113.125 C15.125 115.125 15.125 115.125 15.25 118.125 C12.09458246 123.95734964 6.91154908 128.83385825 2.46484375 133.6875 C0.54897385 135.79597058 -1.29214422 137.94491256 -3.125 140.125 C-11.09977213 149.24429961 -22.20073634 161.09075846 -34.94140625 162.33984375 C-39.66370006 162.53433691 -43.06111071 162.37990232 -46.75 159.125 C-49.78017985 154.63197471 -50.67033341 150.43045145 -49.75 145.125 C-46.07867282 133.0355792 -38.71314878 121.87847052 -32.359375 111.03515625 C-31.99175049 110.40399902 -31.62412598 109.7728418 -31.24536133 109.12255859 C-30.25319319 107.42490464 -29.25002457 105.73369329 -28.24609375 104.04296875 C-26.84962414 101.3193061 -26.15670447 99.13907015 -25.75 96.125 C-48.44298831 105.21223647 -64.34387157 130.30393296 -73.70727539 151.86743164 C-77.09798942 159.51993485 -77.09798942 159.51993485 -80.75 161.125 C-84.203125 161.41796875 -84.203125 161.41796875 -88 161.3125 C-89.26328125 161.28542969 -90.5265625 161.25835938 -91.828125 161.23046875 C-92.79234375 161.19566406 -93.7565625 161.16085937 -94.75 161.125 C-95.92275348 157.03373591 -95.65928476 155.10114174 -93.64453125 151.37890625 C-92.92052124 150.01693115 -92.92052124 150.01693115 -92.18188477 148.62744141 C-91.38028931 147.17217041 -91.38028931 147.17217041 -90.5625 145.6875 C-90.01585693 144.66833496 -89.46921387 143.64916992 -88.90600586 142.59912109 C-87.20256068 139.43254472 -85.47907617 136.2776426 -83.75 133.125 C-82.74457237 131.28267174 -81.73935425 129.44022913 -80.734375 127.59765625 C-79.26691348 124.90996458 -77.79780311 122.22324486 -76.32348633 119.53930664 C-72.53127522 112.61896676 -68.87186894 105.63578048 -65.25 98.625 C-60.81482918 90.04314071 -56.27590702 81.5308499 -51.62109375 73.06640625 C-47.31052335 65.20464055 -43.11318947 57.28546403 -38.9284668 49.35629272 C-37.75686933 47.1380063 -36.58298836 44.92094537 -35.40820312 42.7043457 C-35.02624786 41.98362381 -34.6442926 41.26290192 -34.25076294 40.52033997 C-33.49094923 39.08670761 -32.73108241 37.65310341 -31.97116089 36.2195282 C-30.26647525 33.00078204 -28.56668155 29.77979342 -26.88525391 26.54882812 C-25.28968148 23.48438112 -23.67795809 20.42899509 -22.0625 17.375 C-21.61841797 16.50746094 -21.17433594 15.63992188 -20.71679688 14.74609375 C-16.20815384 6.30176685 -10.06022937 -0.23952927 0 0 Z"/>
<path transform="translate(585.859375,536.12109375)" fill="#151F16" d="M0 0 C2.17539024 1.7454917 3.88542475 3.36850576 5.140625 5.87890625 C6.17495473 19.93561688 3.75509039 31.80186484 -3.859375 43.87890625 C8.28925015 42.84498071 15.26807512 35.2267533 23.03515625 26.46875 C25.140625 24.87890625 25.140625 24.87890625 27.90234375 25.1328125 C28.64097656 25.37902344 29.37960937 25.62523437 30.140625 25.87890625 C30.48885683 29.09291477 30.36678063 30.53660156 28.55859375 33.2734375 C21.59306939 40.82450507 12.78446228 50.11155267 2.140625 51.87890625 C0.30587792 51.75209285 -1.52753778 51.60496314 -3.359375 51.44140625 C-6.99721307 51.32081493 -8.32639561 51.40928804 -11.09375 53.84765625 C-13.12460975 56.46101065 -14.99797776 59.14297324 -16.859375 61.87890625 C-23.06907123 69.43204638 -32.28454608 76.10492876 -42.19140625 77.1171875 C-48.37492377 77.30220613 -51.89299162 76.65335762 -56.859375 72.87890625 C-62.92081159 65.06284328 -62.82203701 56.37646622 -61.859375 46.87890625 C-57.70580053 29.4264431 -43.98255259 14.54477821 -29.12890625 5.15234375 C-20.76117518 0.360667 -9.35300389 -5.63931117 0 0 Z"/>
<path transform="translate(426,440)" fill="#162016" d="M0 0 C2.4375 1.4375 2.4375 1.4375 4 4 C4.84668815 11.84980368 1.56000836 17.87873617 -3 24 C-5.86639143 27.46984226 -8.87898627 30.75852609 -12 34 C-12.61101562 34.639375 -13.22203125 35.27875 -13.8515625 35.9375 C-17.51787744 39.68752076 -21.39054662 43.1383569 -25.3984375 46.51953125 C-28.78062439 49.64599182 -28.35970209 53.5514307 -28.6484375 57.875 C-28.76800171 59.51824573 -28.88780187 61.16147431 -29.0078125 62.8046875 C-29.1907921 65.37511517 -29.37128863 67.94565797 -29.546875 70.51660156 C-31.69122129 101.59743892 -31.69122129 101.59743892 -36.6875 114.8125 C-36.94168701 115.50424316 -37.19587402 116.19598633 -37.45776367 116.90869141 C-46.43930708 140.23758506 -65.2236004 157.38956842 -87.25 168.25 C-103.57396341 175.27127101 -117.30282665 176.65896209 -135 175 C-135 174.67 -135 174.34 -135 174 C-133.35 174 -131.7 174 -130 174 C-130 173.34 -130 172.68 -130 172 C-127.36 172 -124.72 172 -122 172 C-122 171.34 -122 170.68 -122 170 C-118.63757177 167.75838118 -116.05270365 167.2148103 -112.125 166.3125 C-94.0377323 161.76440617 -79.69877665 150.35251477 -69.90625 134.640625 C-60.45605723 118.73247168 -54.52554401 101.92482345 -50.1875 84 C-49.98060547 83.15260254 -49.77371094 82.30520508 -49.56054688 81.43212891 C-48.21488246 75.64509229 -47.4575172 69.92173729 -47 64 C-48.32 64 -49.64 64 -51 64 C-51.66 64 -52.32 64 -53 64 C-53 61.375 -53 61.375 -52 58 C-50.36328125 56.828125 -50.36328125 56.828125 -48.3125 55.625 C-43.40908955 52.28057795 -42.11127488 47.89537749 -40.28588867 42.5234375 C-34.7440991 26.240383 -26.10463199 10.18370895 -11.0859375 0.8046875 C-7.12529447 -1.1320146 -4.15972975 -1.38657658 0 0 Z"/>
<path transform="translate(704,537)" fill="#151F15" d="M0 0 C3.05466504 3.46195371 3.61049692 6.77393238 3.38793945 11.25756836 C1.91154197 21.69455571 -4.07585356 31.04573455 -9.5625 39.8125 C-17.14064428 51.2844512 -17.14064428 51.2844512 -22 64 C-5.58883062 61.31453592 7.2495211 43.40601473 17 31 C18.01581415 29.76668212 19.03568267 28.53667219 20.0625 27.3125 C20.701875 26.549375 21.34125 25.78625 22 25 C23.65 25.33 25.3 25.66 27 26 C26.66178461 31.8893593 24.96673662 34.90033784 20.875 38.9375 C19.8599196 39.98754952 18.8455951 41.0383303 17.83203125 42.08984375 C17.34041504 42.59112793 16.84879883 43.09241211 16.34228516 43.60888672 C14.66991236 45.34209519 13.11277689 47.1573632 11.5625 49 C-10.1539263 73.88556985 -10.1539263 73.88556985 -23.69921875 75.27734375 C-28.85378045 75.44939187 -32.93115243 75.54383498 -37 72 C-40.04762414 67.4285638 -39.58792361 63.34860153 -39 58 C-36.18262032 49.21717895 -31.51823085 41.2067732 -26.9375 33.25 C-19.31867624 21.26700931 -19.31867624 21.26700931 -15 8 C-39.69034623 14.82808247 -56.57391454 46.97574396 -68.24853516 67.55810547 C-69.97594839 70.55509441 -71.05454583 72.03636389 -74 74 C-77.35546875 74.1953125 -77.35546875 74.1953125 -81.1875 74.125 C-82.45980469 74.10695313 -83.73210938 74.08890625 -85.04296875 74.0703125 C-86.01878906 74.04710937 -86.99460937 74.02390625 -88 74 C-89.27001841 69.71711157 -88.77003101 67.71377048 -86.67578125 63.81640625 C-86.14782959 62.81778564 -85.61987793 61.81916504 -85.07592773 60.7902832 C-84.20303101 59.19253052 -84.20303101 59.19253052 -83.3125 57.5625 C-82.71961182 56.45156982 -82.12672363 55.34063965 -81.51586914 54.19604492 C-79.69221982 50.78903832 -77.84856958 47.39353831 -76 44 C-74.96069077 42.07825841 -73.92161341 40.15639141 -72.8828125 38.234375 C-70.44807175 33.74338174 -67.99018562 29.26544658 -65.52783203 24.78955078 C-63.89147803 21.8018581 -62.27051993 18.80616816 -60.65234375 15.80859375 C-60.10392822 14.79498779 -59.5555127 13.78138184 -58.99047852 12.73706055 C-57.93501593 10.78548359 -56.88201006 8.83257544 -55.83178711 6.87817383 C-55.35878174 6.00572021 -54.88577637 5.1332666 -54.3984375 4.234375 C-53.98255371 3.46319336 -53.56666992 2.69201172 -53.13818359 1.89746094 C-52 0 -52 0 -50 -2 C-46.7421875 -2.1953125 -46.7421875 -2.1953125 -42.875 -2.125 C-40.95300781 -2.09792969 -40.95300781 -2.09792969 -38.9921875 -2.0703125 C-37.51105469 -2.03550781 -37.51105469 -2.03550781 -36 -2 C-34.95230482 1.27479579 -34.86184826 2.67083459 -36.21484375 5.89453125 C-36.78332031 6.85746094 -37.35179687 7.82039062 -37.9375 8.8125 C-38.50339844 9.78832031 -39.06929687 10.76414062 -39.65234375 11.76953125 C-40.31943359 12.87361328 -40.31943359 12.87361328 -41 14 C-40.28650391 13.27296875 -40.28650391 13.27296875 -39.55859375 12.53125 C-34.81744904 7.99092726 -29.95899645 4.6133384 -24.1875 1.5625 C-23.54159912 1.22089844 -22.89569824 0.87929688 -22.23022461 0.52734375 C-14.65952946 -3.35314279 -7.56408928 -4.98542248 0 0 Z"/>
<path transform="translate(380,503)" fill="#F8F8F8" d="M0 0 C-0.50197524 7.87655352 -1.75105653 15.33818812 -3.625 23 C-3.89078857 24.08796875 -4.15657715 25.1759375 -4.43041992 26.296875 C-9.35853143 45.84299548 -16.59218831 65.59998988 -30 81 C-30.5053125 81.65871094 -31.010625 82.31742188 -31.53125 82.99609375 C-41.37317684 95.37086941 -57.50791038 103.6949486 -73 106 C-75.9390059 106.238522 -78.86448244 106.33764695 -81.8125 106.375 C-82.51777832 106.38893799 -83.22305664 106.40287598 -83.94970703 106.41723633 C-88.97322206 106.3716111 -92.49786394 105.22458488 -97 103 C-94.89762763 92.65537229 -87.03885674 83.44097975 -81 75 C-80.46375 75.15726563 -79.9275 75.31453125 -79.375 75.4765625 C-69.48886933 77.65541367 -60.73379371 75.85210762 -52 71 C-48.75509279 68.90096693 -45.87883911 66.57358743 -43 64 C-42.28457031 63.40058594 -41.56914062 62.80117188 -40.83203125 62.18359375 C-28.01789636 50.59417264 -19.76877525 33.02643056 -15.5625 16.5 C-14.08611019 11.2631585 -11.10201102 8.41689713 -7 5 C-6.42121094 4.49210937 -5.84242188 3.98421875 -5.24609375 3.4609375 C-1.23411313 0 -1.23411313 0 0 0 Z"/>
<path transform="translate(890,622)" fill="#F8F9F8" d="M0 0 C0.99 0.495 0.99 0.495 2 1 C-6.33309173 16.3161295 -15.88773339 29.45453359 -28 42 C-28.60199219 42.66515625 -29.20398438 43.3303125 -29.82421875 44.015625 C-38.80429828 53.69691981 -52.87280549 64.19313767 -66.31640625 65.16796875 C-67.05761719 65.17441406 -67.79882812 65.18085937 -68.5625 65.1875 C-69.30628906 65.20167969 -70.05007813 65.21585938 -70.81640625 65.23046875 C-73.30429025 64.9678835 -74.88385557 64.3196962 -77 63 C-78.46650366 60.06699268 -78.36440295 58.27962656 -78 55 C-74.23585961 47.15934241 -68.38424063 40.92871058 -61.5625 35.6875 C-60.95051758 35.2138501 -60.33853516 34.7402002 -59.70800781 34.25219727 C-44.33491415 22.52165306 -27.19422475 13.54700915 -10 4.8125 C-9.03771484 4.31830566 -8.07542969 3.82411133 -7.08398438 3.31494141 C-6.19001953 2.86683105 -5.29605469 2.4187207 -4.375 1.95703125 C-3.57835937 1.55460205 -2.78171875 1.15217285 -1.9609375 0.73754883 C-1.31382812 0.49415771 -0.66671875 0.2507666 0 0 Z"/>
<path transform="translate(351,519)" fill="#131C14" d="M0 0 C0.33 0.66 0.66 1.32 1 2 C0.34 1.67 -0.32 1.34 -1 1 C-0.67 0.67 -0.34 0.34 0 0 Z M-6 3 C-5.01 3.33 -4.02 3.66 -3 4 C-2.671875 7.171875 -2.671875 7.171875 -3 11 C-5.203125 13.703125 -5.203125 13.703125 -8.25 16.25 C-9.36360304 17.20795939 -10.47687559 18.16630307 -11.58984375 19.125 C-12.44618408 19.84429688 -12.44618408 19.84429688 -13.31982422 20.578125 C-20.88572753 26.98088886 -28.01969124 33.90770142 -35.0625 40.875 C-35.70614502 41.50567383 -36.34979004 42.13634766 -37.01293945 42.78613281 C-40.21500316 45.98180517 -42.89333653 48.94100737 -45 53 C-30.19635702 51.2849438 -21.84354525 46.9873956 -11.9375 35.63671875 C-6.8373499 29.02503223 -3.08978733 21.75223189 0.58789062 14.28564453 C0.98814453 13.48755371 1.38839844 12.68946289 1.80078125 11.8671875 C2.15309814 11.14644043 2.50541504 10.42569336 2.8684082 9.68310547 C4 8 4 8 7 7 C8.66710346 5.50014391 8.66710346 5.50014391 10 4 C10.99 4.495 10.99 4.495 12 5 C11.48734585 10.58143184 10.01611644 14.7364594 7.4375 19.6875 C7.07817383 20.38520508 6.71884766 21.08291016 6.34863281 21.80175781 C-2.49939089 38.67095934 -13.79384781 52.95393683 -31.9375 60.16796875 C-35.29625811 61.08048849 -38.14980344 61.23226248 -41.625 61.1875 C-42.73101562 61.18105469 -43.83703125 61.17460938 -44.9765625 61.16796875 C-47.51595034 61.02689165 -49.56858553 60.65718334 -52 60 C-52.48412354 60.75676025 -52.48412354 60.75676025 -52.97802734 61.52880859 C-54.44107721 63.81255526 -55.90798815 66.09379658 -57.375 68.375 C-57.88289063 69.1690625 -58.39078125 69.963125 -58.9140625 70.78125 C-59.40390625 71.54179688 -59.89375 72.30234375 -60.3984375 73.0859375 C-61.07398682 74.1385376 -61.07398682 74.1385376 -61.76318359 75.21240234 C-63 77 -63 77 -65 79 C-66.67422986 78.70700977 -68.34178227 78.37309899 -70 78 C-70.99 78.495 -70.99 78.495 -72 79 C-71.51883752 73.89378591 -68.93348101 70.56688755 -66.0625 66.5 C-61.73441874 60.64506273 -61.73441874 60.64506273 -59 54 C-59.82943401 51.99696682 -59.82943401 51.99696682 -61 50 C-61.95271592 42.97998796 -61.55453091 37.44101163 -57.38671875 31.62109375 C-54.55886333 28.31529093 -54.55886333 28.31529093 -53 27 C-50.3125 27.3125 -50.3125 27.3125 -48 28 C-48.31925841 33.9594904 -49.45822666 37.35298814 -53.0390625 42.140625 C-54.22729665 43.99030229 -54.22729665 43.99030229 -53.6484375 46.234375 C-53.43445313 46.81703125 -53.22046875 47.3996875 -53 48 C-49.83475772 44.83804155 -46.67582961 41.66996945 -43.5221405 38.49649048 C-41.19219181 36.15299848 -38.85944115 33.81230327 -36.52661133 31.47167969 C-35.30500164 30.2450428 -34.08429119 29.01750968 -32.86450195 27.7890625 C-20.56293615 15.40277288 -20.56293615 15.40277288 -14.64111328 10.39404297 C-12.20665742 8.32609549 -9.88027976 6.14505859 -7.54296875 3.96875 C-7.03378906 3.6490625 -6.52460938 3.329375 -6 3 Z"/>
<path transform="translate(806,543)" fill="#F8F8F8" d="M0 0 C2 2 2 2 2.0625 5.75 C0.50889541 16.98653555 -7.109005 27.3529518 -14 36 C-14.41266113 36.53012695 -14.82532227 37.06025391 -15.25048828 37.60644531 C-29.70561165 56.08969397 -29.70561165 56.08969397 -40 58.1875 C-43 58 -43 58 -44.9375 57 C-46.59328525 53.88322777 -46.62002974 51.3830749 -46 48 C-40.39081045 29.73626205 -26.41981146 11.74289303 -10.375 1.5 C-6.58980075 -0.18231078 -4.09772492 -0.48208528 0 0 Z"/>
<path transform="translate(582,543)" fill="#F7F8F7" d="M0 0 C2.13586678 3.20380017 2.23132175 4.01939967 2.125 7.6875 C2.10695313 8.49574219 2.08890625 9.30398438 2.0703125 10.13671875 C2.04710937 10.75160156 2.02390625 11.36648438 2 12 C1.39671875 11.86980469 0.7934375 11.73960937 0.171875 11.60546875 C-2.2836807 11.18168736 -4.50790967 10.90100505 -7 11 C-10.91528031 14.41332129 -12.80060964 18.79497716 -13.265625 23.9375 C-13.26046875 24.948125 -13.2553125 25.95875 -13.25 27 C-13.25515625 28.010625 -13.2603125 29.02125 -13.265625 30.0625 C-13.14416671 33.01631892 -13.14416671 33.01631892 -11.921875 35.625 C-11 38 -11 38 -11.1171875 40.0078125 C-14.26230386 47.10519898 -23.04888355 55.52444177 -30 59 C-33.67179103 59.47892926 -35.35633954 59.47427613 -38.375 57.25 C-41.39390685 51.2121863 -40.84191323 45.13296028 -39.1171875 38.71484375 C-33.63447742 23.48307633 -22.70018852 7.68582201 -8.375 -0.5 C-5.2623175 -1.15530158 -3.04748219 -0.88038374 0 0 Z"/>
<path transform="translate(355,523)" fill="#F7F8F7" d="M0 0 C1 2 1 2 0.5390625 3.8203125 C-6.77039853 22.25015014 -17.53598431 39.59015915 -36 48.4375 C-40.34065085 49.25137203 -44.59825603 49.15658378 -49 49 C-47.58960487 44.50849656 -45.13794641 41.72654267 -41.8359375 38.5078125 C-41.32503571 37.99878387 -40.81413391 37.48975525 -40.28775024 36.96530151 C-39.2068876 35.89114222 -38.12244245 34.82057724 -37.03466797 33.75341797 C-35.39432812 32.14396419 -33.76464218 30.52434566 -32.13671875 28.90234375 C-27.12855533 23.93171475 -22.07053291 19.05309719 -16.70751953 14.46240234 C-13.22611015 11.4807549 -9.88852386 8.33744195 -6.515625 5.234375 C-4.40830854 3.36265914 -2.28563587 1.64480338 0 0 Z"/>
<path transform="translate(428,443)" fill="#101810" d="M0 0 C0.66 0.33 1.32 0.66 2 1 C1.94014969 15.06482202 -6.82538535 23.77607528 -16.2734375 33.2890625 C-16.84320313 33.85367188 -17.41296875 34.41828125 -18 35 C-18.66 34.67 -19.32 34.34 -20 34 C-18.35 32.35 -16.7 30.7 -15 29 C-15.99 28.67 -16.98 28.34 -18 28 C-19.98 29.98 -21.96 31.96 -24 34 C-24.66 33.67 -25.32 33.34 -26 33 C-25.443125 32.47792969 -24.88625 31.95585937 -24.3125 31.41796875 C-15.6494493 23.06222222 -8.80205845 14.53124307 -5 3 C-6.423125 3.7734375 -6.423125 3.7734375 -7.875 4.5625 C-8.90625 5.036875 -9.9375 5.51125 -11 6 C-11.66 5.67 -12.32 5.34 -13 5 C-10.77769156 3.02461472 -9.41300448 2.06043968 -6.4375 1.625 C-3.60675742 2.06049886 -2.74835273 2.79155445 -1 5 C-0.67 3.35 -0.34 1.7 0 0 Z"/>
<path transform="translate(423,446)" fill="#F4F5F4" d="M0 0 C-0.48984949 9.30714038 -7.06481433 16.37796164 -13.0625 22.9375 C-13.56885986 23.4931665 -14.07521973 24.04883301 -14.59692383 24.62133789 C-17.488012 27.69114959 -20.22556183 30.01236008 -24 32 C-21.51795674 21.76701463 -12.54834071 0 0 0 Z"/>
<path transform="translate(366.125,485.25)" fill="#1D271E" d="M0 0 C1.875 0.75 1.875 0.75 2.875 2.75 C2.94565617 4.79055005 2.95921976 6.83334257 2.9375 8.875 C2.92847656 9.97070312 2.91945313 11.06640625 2.91015625 12.1953125 C2.89855469 13.03835938 2.88695312 13.88140625 2.875 14.75 C1.885 15.08 0.895 15.41 -0.125 15.75 C-0.125 14.76 -0.125 13.77 -0.125 12.75 C-0.785 12.75 -1.445 12.75 -2.125 12.75 C-2.455 10.77 -2.785 8.79 -3.125 6.75 C-3.455 9.39 -3.785 12.03 -4.125 14.75 C-4.455 14.75 -4.785 14.75 -5.125 14.75 C-5.20578641 12.62561661 -5.26409141 10.5003677 -5.3125 8.375 C-5.34730469 7.19164062 -5.38210938 6.00828125 -5.41796875 4.7890625 C-5.32128906 3.78617187 -5.22460938 2.78328125 -5.125 1.75 C-2.125 -0.25 -2.125 -0.25 0 0 Z"/>
<path transform="translate(292,384)" fill="#1B823B" d="M0 0 C0 0.99 0 1.98 0 3 C-3.96 4.98 -3.96 4.98 -8 7 C-7.34 8.32 -6.68 9.64 -6 11 C-7.4317616 11.69937202 -8.87067032 12.38412718 -10.3125 13.0625 C-11.11300781 13.44535156 -11.91351563 13.82820313 -12.73828125 14.22265625 C-15 15 -15 15 -18 14 C-16.02 13.34 -14.04 12.68 -12 12 C-12 11.01 -12 10.02 -12 9 C-13.32 8.67 -14.64 8.34 -16 8 C-12.05802694 5.99443476 -8.14222199 4.02225901 -4.0625 2.3125 C-1.17602371 1.2998206 -1.17602371 1.2998206 0 0 Z"/>
<path transform="translate(410,470)" fill="#1B261C" d="M0 0 C1.32 0.66 2.64 1.32 4 2 C-1.28571429 8.42857143 -1.28571429 8.42857143 -4 11 C-4 10.01 -4 9.02 -4 8 C-4.66 8 -5.32 8 -6 8 C-6.33 8.99 -6.66 9.98 -7 11 C-7.99 10.67 -8.98 10.34 -10 10 C-9.67 8.68 -9.34 7.36 -9 6 C-8.1646875 5.9071875 -8.1646875 5.9071875 -7.3125 5.8125 C-4.05012827 4.66626128 -2.31332126 2.50609803 0 0 Z"/>
<path transform="translate(68,524)" fill="#1C823A" d="M0 0 C4.92963395 0.13240752 9.53315231 0.83862209 14 3 C10.42355152 4.2380014 7.66305234 3.74926071 4 3 C3.01 4.98 2.02 6.96 1 9 C-1 7 -1 7 -1.1875 3.9375 C-1 1 -1 1 0 0 Z"/>
<path transform="translate(891,600)" fill="#E3E4E3" d="M0 0 C0.99 0 1.98 0 3 0 C5.31282587 3.46923881 5.42478586 4.92205575 5 9 C3.5 10.875 3.5 10.875 2 12 C1.34 11.34 0.68 10.68 0 10 C0.33 9.67 0.66 9.34 1 9 C1.14636054 5.63370749 1.07193479 3.21580438 0 0 Z"/>
<path transform="translate(88,479)" fill="#1F843C" d="M0 0 C4.21912747 0.4794463 6.79663178 1.16625119 10 4 C7.23723823 3.47731534 4.6739124 2.89130413 2 2 C2 5.3 2 8.6 2 12 C-0.13586678 8.79619983 -0.23132175 7.98060033 -0.125 4.3125 C-0.10695313 3.50425781 -0.08890625 2.69601562 -0.0703125 1.86328125 C-0.04710938 1.24839844 -0.02390625 0.63351562 0 0 Z"/>
<path transform="translate(581,544)" fill="#DDDFDD" d="M0 0 C0.66 0 1.32 0 2 0 C3.20272819 2.40545638 3.10071472 3.94996953 3.0625 6.625 C3.05347656 7.44226563 3.04445313 8.25953125 3.03515625 9.1015625 C3.02355469 9.72804688 3.01195312 10.35453125 3 11 C0.36 10.34 -2.28 9.68 -5 9 C-4.360625 8.773125 -3.72125 8.54625 -3.0625 8.3125 C-0.75007642 7.15671877 -0.75007642 7.15671877 -0.25 4.5 C0.03316791 2.08706575 0.03316791 2.08706575 0 0 Z"/>
<path transform="translate(191,542)" fill="#359355" d="M0 0 C1.45823212 -0.0270043 2.91660675 -0.04639787 4.375 -0.0625 C5.18710938 -0.07410156 5.99921875 -0.08570313 6.8359375 -0.09765625 C9 0 9 0 11 1 C12.66194453 1.35613097 14.328451 1.69208308 16 2 C16 2.33 16 2.66 16 3 C11.05 3 6.1 3 1 3 C0.67 2.01 0.34 1.02 0 0 Z"/>
<path transform="translate(147,521)" fill="#EEF5F1" d="M0 0 C0.66 0.66 1.32 1.32 2 2 C1.01 4.31 0.02 6.62 -1 9 C-1.66 9 -2.32 9 -3 9 C-3.433125 10.4540625 -3.433125 10.4540625 -3.875 11.9375 C-5 15 -5 15 -7 16 C-5.35433477 10.31497465 -2.70967216 5.23318364 0 0 Z"/>
<path transform="translate(142,411)" fill="#187F35" d="M0 0 C3.35954694 0.44464592 4.96614217 1.6229246 7.25 4.0625 C7.77078125 4.61035156 8.2915625 5.15820312 8.828125 5.72265625 C9.21484375 6.14417969 9.6015625 6.56570313 10 7 C9.67 7.66 9.34 8.32 9 9 C8.59007812 8.566875 8.18015625 8.13375 7.7578125 7.6875 C7.21898437 7.130625 6.68015625 6.57375 6.125 6 C5.59132812 5.443125 5.05765625 4.88625 4.5078125 4.3125 C3.08175012 2.78114478 3.08175012 2.78114478 1 3 C0.34 3.99 -0.32 4.98 -1 6 C-1.042721 4.33388095 -1.04063832 2.66617115 -1 1 C-0.67 0.67 -0.34 0.34 0 0 Z"/>
<path transform="translate(298,546)" fill="#1C231C" d="M0 0 C2.475 0.495 2.475 0.495 5 1 C4.67 3.64 4.34 6.28 4 9 C3.34 8.67 2.68 8.34 2 8 C2 6.35 2 4.7 2 3 C1.34 2.67 0.68 2.34 0 2 C0 1.34 0 0.68 0 0 Z"/>
<path transform="translate(941,573)" fill="#292D2A" d="M0 0 C0.66 0.33 1.32 0.66 2 1 C-0.64 3.97 -3.28 6.94 -6 10 C-6.99 9.67 -7.98 9.34 -9 9 C-6.03 6.03 -3.06 3.06 0 0 Z"/>
<path transform="translate(848,564)" fill="#2D332D" d="M0 0 C2.0625 0.4375 2.0625 0.4375 4 1 C4.33 2.65 4.66 4.3 5 6 C4.01 6.33 3.02 6.66 2 7 C1.01 5.02 0.02 3.04 -1 1 C-0.67 0.67 -0.34 0.34 0 0 Z"/>
<path transform="translate(591,545)" fill="#C3C7C4" d="M0 0 C0.33 0 0.66 0 1 0 C1 2.97 1 5.94 1 9 C1.66 9 2.32 9 3 9 C2.39816251 11.02045442 1.72693904 13.02111039 1 15 C0.01 15.495 0.01 15.495 -1 16 C-0.67 10.72 -0.34 5.44 0 0 Z"/>
<path transform="translate(745,588)" fill="#202A21" d="M0 0 C0.33 0 0.66 0 1 0 C1 4.95 1 9.9 1 15 C0.01 15.495 0.01 15.495 -1 16 C-1.33 14.35 -1.66 12.7 -2 11 C-1.34 11 -0.68 11 0 11 C0 7.37 0 3.74 0 0 Z"/>
<path transform="translate(559,553)" fill="#091009" d="M0 0 C0 4.38968456 -2.12805101 5.76905739 -5 9 C-5 6.16032769 -4.59732819 3.76264289 -4 1 C-3.01 1 -2.02 1 -1 1 C-0.67 0.67 -0.34 0.34 0 0 Z"/>
<path transform="translate(362,492)" fill="#060C07" d="M0 0 C0.33 0 0.66 0 1 0 C1.25028811 1.58013217 1.47440946 3.16442306 1.6875 4.75 C1.87892578 6.07257813 1.87892578 6.07257813 2.07421875 7.421875 C2 10 2 10 -1 14 C-0.67 9.38 -0.34 4.76 0 0 Z"/>
<path transform="translate(913,557)" fill="#242B25" d="M0 0 C2.64 0 5.28 0 8 0 C8 1.32 8 2.64 8 4 C7.34 4 6.68 4 6 4 C6 3.34 6 2.68 6 2 C4.35 2 2.7 2 1 2 C0.67 1.34 0.34 0.68 0 0 Z"/>
<path transform="translate(423,440)" fill="#0D150F" d="M0 0 C-1.32 0.33 -2.64 0.66 -4 1 C-4 1.66 -4 2.32 -4 3 C-5.65 3.33 -7.3 3.66 -9 4 C-8.67 3.01 -8.34 2.02 -8 1 C-5.29120665 -0.35439668 -2.99066732 -0.06501451 0 0 Z"/>
<path transform="translate(160,434)" fill="#1C833C" d="M0 0 C0.99 0.495 0.99 0.495 2 1 C2.59355614 3.64860427 2.74209269 6.29197322 3 9 C1.5 7.875 1.5 7.875 0 6 C-0.1875 2.8125 -0.1875 2.8125 0 0 Z"/>
</svg>